{"title":"Saving Mr Banks 2013 DVDScr x264 AAC - ViZNU [P2PDL]","uid":9400216,"size":498101474,"categoryP":"video","categoryS":"movies","magnet":"?xt=urn:btih:a61e6787eaadecb1faa20673cb65b503d33d317c&amp;dn=Saving+Mr+Banks+2013+DVDScr+x264+AAC+-+ViZNU+%5BP2PDL%5D&amp;tr=udp%3A%2F%2Ftracker.openbittorrent.com%3A80&amp;tr=udp%3A%2F%2Fopen.demonii.com%3A1337&amp;tr=udp%3A%2F%2Ftracker.coppersurfer.tk%3A6969&amp;tr=udp%3A%2F%2Fexodus.desync.com%3A6969","seeders":3,"leechers":0,"uploader":"Vitamin_X","files":-1,"time":1388058534,"description":"_______ Visit us at our Semi Public Bittorrent Community ________\n  &lt;a href=&quot;\nhttp://p2pdl.com&quot; rel=&quot;nofollow&quot; target=&quot;_NEW&quot;&gt;\nhttp://p2pdl.com&lt;/a&gt;  _____________________________ &lt;a href=&quot; http://p2pdl.com&quot; rel=&quot;nofollow&quot; target=&quot;_NEW&quot;&gt; http://p2pdl.com&lt;/a&gt;\n\n\nSaving Mr Banks 2013 DVDScr x264 AAC - ViZNU\n\n\nGenre: Biography | Comedy | Drama\nPlot:Author P. L. Travers reflects on her difficult childhood \nwhile meeting with filmmaker Walt Disney during production \nfor the adaptation of her novel, Mary Poppins.\nDirector: John Lee Hancock\nStars: Emma Thompson, Tom Hanks, Annie Rose Buckley\nRated: Rated PG-13 for thematic elements including some unsettling images\n\nIMDb: &lt;a href=&quot;\nhttp://www.imdb.com/title/tt2140373/&quot; rel=&quot;nofollow&quot; target=&quot;_NEW&quot;&gt;\nhttp://www.imdb.com/title/tt2140373/&lt;/a&gt;\n\n\n\nGeneral\nFormat                         : MPEG-4\nFile size                      : 471 MiB\nDuration                       : 2h 11mn\nOverall bit rate mode          : Variable\nOverall bit rate               : 502 Kbps\n\nVideo\nFormat                         : AVC\nBit rate                       : 459 Kbps\nWidth                          : 656 pixels\nHeight                         : 480 pixels\nDisplay aspect ratio           : 4:3\nFrame rate mode                : Constant\nFrame rate                     : 29.970 fps\nBit depth                      : 10 bits\nStream size                    : 430 MiB (91%)\nWriting library                : x264 core 140 r2377 1ca7bb9\n\nAudio\nFormat                         : AAC\nBit rate                       : 40.0 Kbps\nChannel count                  : 2 channels\nChannel positions              : Front: L R\nSampling rate                  : 48.0 KHz / 24.0 KHz\nCompression mode               : Lossy\nStream size                    : 37.5 MiB (8%)\n\n\nSubtitle                       : No\n\nSource                         : SCR DVDR-DTeCH\n\n &lt;a href=&quot;\nhttp://ultraimg.com/images/0aGzE.png&quot; rel=&quot;nofollow&quot; target=&quot;_NEW&quot;&gt;\nhttp://ultraimg.com/images/0aGzE.png&lt;/a&gt; &lt;a href=&quot;\nhttp://ultraimg.com/images/oeJFj.png&quot; rel=&quot;nofollow&quot; target=&quot;_NEW&quot;&gt;\nhttp://ultraimg.com/images/oeJFj.png&lt;/a&gt; &lt;a href=&quot;\nhttp://ultraimg.com/images/RHciM.png&quot; rel=&quot;nofollow&quot; target=&quot;_NEW&quot;&gt;\nhttp://ultraimg.com/images/RHciM.png&lt;/a&gt; &lt;a href=&quot;\nhttp://ultraimg.com/images/DGHr7.png&quot; rel=&quot;nofollow&quot; target=&quot;_NEW&quot;&gt;\nhttp://ultraimg.com/images/DGHr7.png&lt;/a&gt; &lt;a href=&quot;\nhttp://ultraimg.com/images/ZLtXU.png&quot; rel=&quot;nofollow&quot; target=&quot;_NEW&quot;&gt;\nhttp://ultraimg.com/images/ZLtXU.png&lt;/a&gt; &lt;a href=&quot;\nhttp://ultraimg.com/images/sPgZ.png&quot; rel=&quot;nofollow&quot; target=&quot;_NEW&quot;&gt;\nhttp://ultraimg.com/images/sPgZ.png&lt;/a&gt;\n\n\n----------------------------------------------------------------------------------------------------\n\n\nEncoded using revolutionary 10bit encoding, which enables us to provide you more crispier \nand sharper images at small sizes, just make sure you follow our instructions without a fault.\nRecommend to you to use latest version of VLC player. Install K-Lite Codec Pack or shark007 codecs\nin case of any kind of problem in playback (For non-VLC Media Player users). Alternatively, install\nCore AVC codecs, the fastest decoder that there is coupled with Community Center Codec Pack and play\non Windows Media Player Classic. Check sample to be sure.\nEnjoy!\n\nEncoder Notes:Looking For Early Access To Anything You Can Provide DVDScr, R5, DVDR, BluRay, Direct\nAudio, Music Releases and Seedboxes. We require dedicated servers, so as to do more \nand fast releases of movies.\nIf You Got anything to offer please contact us at &quot;&lt;a class=&quot;__cf_email__&quot; href=&quot;/cdn-cgi/l/email-protection&quot; data-cfemail=&quot;81f1f3e6c1e9f4f2e9afe2eeec&quot;&gt;[email&amp;#160;protected]&lt;/a&gt;&lt;script cf-hash='f9e31' type=&quot;text/javascript&quot;&gt;\n/* &lt;![CDATA[ */!function(){try{var t=&quot;currentScript&quot;in document?document.currentScript:function(){for(var t=document.getElementsByTagName(&quot;script&quot;),e=t.length;e--;)if(t[e].getAttribute(&quot;cf-hash&quot;))return t[e]}();if(t&amp;&amp;t.previousSibling){var e,r,n,i,c=t.previousSibling,a=c.getAttribute(&quot;data-cfemail&quot;);if(a){for(e=&quot;&quot;,r=parseInt(a.substr(0,2),16),n=2;a.length-n;n+=2)i=parseInt(a.substr(n,2),16)^r,e+=String.fromCharCode(i);e=document.createTextNode(e),c.parentNode.replaceChild(e,c)}}}catch(u){}}();/* ]]&gt; */&lt;/script&gt;&quot;.\n\nFacebook Fan Page:  \nSearch P2PDL on FB and don't forget to hit like!!!\n\nSupport us, please consider a donation via bitcoin.\n\n16aCJG7J5n8eqCHHLPNUZ3ZirwGU34cqXJ\n\nFor more of our team uploads visit @                 &lt;a href=&quot;\nhttp://thepiratebay.se/user/ValidusVyto&quot; rel=&quot;nofollow&quot; target=&quot;_NEW&quot;&gt;\nhttp://thepiratebay.se/user/ValidusVyto&lt;/a&gt;\t","torrent":{"xt":"urn:btih:a61e6787eaadecb1faa20673cb65b503d33d317c","amp;dn":"Saving+Mr+Banks+2013+DVDScr+x264+AAC+-+ViZNU+%5BP2PDL%5D","amp;tr":["udp%3A%2F%2Ftracker.openbittorrent.com%3A80","udp%3A%2F%2Fopen.demonii.com%3A1337","udp%3A%2F%2Ftracker.coppersurfer.tk%3A6969","udp%3A%2F%2Fexodus.desync.com%3A6969"],"infoHash":"a61e6787eaadecb1faa20673cb65b503d33d317c","infoHashBuffer":{"type":"Buffer","data":[166,30,103,135,234,173,236,177,250,162,6,115,203,101,181,3,211,61,49,124]},"announce":[],"urlList":[]}}